#N canvas 857 43 451 333 10;
#X declare -lib mrpeach;
#X obj 17 15 udpreceive 6006;
#X obj 17 71 routeOSC /accelerometer;
#X obj 17 103 unpack s s s;
#X obj 135 15 import mrpeach;
#X obj 17 133 fromsymbol;
#X obj 17 163 > 1;
#X obj 17 190 change;
#X obj 17 218 sel 1 0;
#X obj 17 296 noteout 1;
#X msg 17 257 60 100;
#X msg 73 258 60 0;
#X obj 17 42 unpackOSC;
#X connect 0 0 11 0;
#X connect 1 0 2 0;
#X connect 2 0 4 0;
#X connect 4 0 5 0;
#X connect 5 0 6 0;
#X connect 6 0 7 0;
#X connect 7 0 9 0;
#X connect 7 1 10 0;
#X connect 9 0 8 0;
#X connect 10 0 8 0;
#X connect 11 0 1 0;
